<svg width="447" height="359" viewBox="0 0 447 359" fill="none" xmlns="http://www.w3.org/2000/svg">
<path fill-rule="evenodd" clip-rule="evenodd" d="M125.406 253.097V258.987C125.406 262.33 124.222 264.492 121.676 265.867C118.931 267.041 115.201 267.83 110.102 267.83H93.8171V228.745H109.515C115.201 228.745 118.931 229.338 120.887 230.713C122.846 231.889 123.836 234.05 123.836 237.191V241.901C123.836 243.082 123.248 244.062 122.459 245.045C121.48 246.032 120.498 246.62 119.518 247.013V247.204C120.887 247.405 122.261 248.188 123.635 249.174C124.813 250.349 125.406 251.529 125.406 253.097ZM114.815 240.729V238.765C114.815 237.585 114.42 236.606 113.824 236.211C113.239 235.618 111.863 235.424 109.515 235.424H103.241V244.656H109.515C111.863 244.656 113.239 244.458 113.824 243.873C114.42 243.283 114.815 242.294 114.815 240.729ZM116.185 257.813V254.67C116.185 253.296 115.789 252.315 115.005 251.529C114.227 250.943 113.043 250.742 111.082 250.742H103.241V261.149H109.901C112.064 261.149 113.824 260.758 114.613 260.37C115.595 259.779 116.185 258.987 116.185 257.813Z" fill="white"/>
<path fill-rule="evenodd" clip-rule="evenodd" d="M162.273 267.83H131.868V228.745H161.49V235.424H141.292V244.458H159.531V251.138H141.292V261.149H162.273V267.83Z" fill="white"/>
<path fill-rule="evenodd" clip-rule="evenodd" d="M196.994 267.83H168.553V228.745H177.768V261.149H196.994V267.83Z" fill="white"/>
<path fill-rule="evenodd" clip-rule="evenodd" d="M239.952 267.83H228.579L212.884 247.204L227.399 228.745H238.384L223.669 247.013L239.952 267.83ZM212.685 267.83H203.275V228.745H212.685V267.83Z" fill="white"/>
<path fill-rule="evenodd" clip-rule="evenodd" d="M279.962 267.83H270.355L267.017 257.421H252.701L249.368 267.83H240.151L254.472 228.745H265.841L279.962 267.83ZM264.867 251.33L259.957 236.606H259.764L254.859 251.33H264.867Z" fill="white"/>
<path fill-rule="evenodd" clip-rule="evenodd" d="M320.766 267.83H311.356L292.524 240.729V267.83H284.28V228.745H293.699L312.531 255.459V228.745H320.766V267.83Z" fill="white"/>
<path fill-rule="evenodd" clip-rule="evenodd" d="M359.403 235.424H347.636V267.83H338.223V235.424H326.263V228.745H359.403V235.424Z" fill="white"/>
<path fill-rule="evenodd" clip-rule="evenodd" d="M400.993 239.94V257.028C400.993 259.189 400.405 261.15 399.232 262.724C398.052 264.292 396.484 265.472 394.523 266.261C392.559 267.041 390.597 267.634 388.636 267.83C386.672 268.222 384.713 268.417 382.555 268.417C380.4 268.417 378.439 268.222 376.676 268.03C374.714 267.634 372.944 267.241 370.791 266.453C368.827 265.868 367.061 264.687 365.88 263.119C364.705 261.35 364.118 259.383 364.118 257.028V239.94C364.118 237.981 364.509 236.212 365.494 234.837C366.278 233.264 367.456 232.089 368.626 231.302C370.002 230.514 371.379 229.728 373.139 229.339C375.101 228.746 376.676 228.553 378.044 228.353C379.418 228.353 380.986 228.157 382.555 228.157C384.122 228.157 385.499 228.353 387.068 228.353C388.44 228.553 390.009 228.746 391.77 229.339C393.538 229.728 395.105 230.514 396.484 231.302C397.657 232.089 398.838 233.264 399.621 234.638C400.606 236.212 400.993 237.981 400.993 239.94ZM391.577 257.028V239.94C391.577 238.173 390.798 236.799 389.422 236.01C387.847 235.233 385.499 234.837 382.555 234.837C379.418 234.837 377.264 235.233 375.688 236.01C374.121 236.799 373.34 237.981 373.34 239.94V257.028C373.34 258.009 373.727 258.988 374.121 259.582C374.714 260.17 375.495 260.758 376.477 260.959C377.457 261.35 378.439 261.543 379.225 261.543C380.202 261.743 381.186 261.743 382.555 261.743C383.932 261.743 385.104 261.743 385.893 261.543C386.872 261.543 387.661 261.35 388.636 260.959C389.623 260.758 390.401 260.17 390.989 259.582C391.386 258.988 391.577 258.009 391.577 257.028Z" fill="white"/>
<path fill-rule="evenodd" clip-rule="evenodd" d="M445.132 267.83H435.708L416.884 240.729V267.83H408.643V228.745H418.064L436.888 255.459V228.745H445.132V267.83Z" fill="white"/>
<path fill-rule="evenodd" clip-rule="evenodd" d="M114.442 297.944C113.27 298.336 112.094 298.529 110.326 298.925C108.759 299.115 107.385 299.317 106.008 299.317C104.834 299.317 103.854 299.115 102.872 299.115C102.088 298.925 101.111 298.724 100.121 298.529C99.343 298.336 98.554 297.944 97.9663 297.549C97.3814 297.156 96.7859 296.568 96.3995 295.784C96.005 295.196 95.8141 294.206 95.8141 293.427V284.979C95.8141 283.797 96.2009 283.012 96.5927 282.029C96.9845 281.25 97.5749 280.657 98.1622 280.264C98.9512 279.677 99.7348 279.284 100.518 279.089C101.498 278.696 102.48 278.496 103.258 278.496C104.248 278.3 105.029 278.3 106.008 278.3C108.952 278.3 111.695 278.496 114.244 278.888V282.626C111.896 282.029 109.145 281.839 106.008 281.839C102.48 281.839 100.712 282.818 100.712 284.781V293.034C100.712 294.014 101.299 294.8 102.284 295.196C103.258 295.582 104.634 295.784 106.406 295.784C107.584 295.784 108.558 295.582 109.733 295.196V290.477H106.406V287.336H114.442V297.944Z" fill="white"/>
<path fill-rule="evenodd" clip-rule="evenodd" d="M127.977 287.336H126.41C125.23 287.336 124.256 287.536 123.668 287.924C123.08 288.316 122.678 288.909 122.678 289.89V298.925H118.17V283.797H122.484V286.357C122.484 285.767 122.879 284.979 123.858 284.392C124.642 283.797 125.428 283.406 126.41 283.406H127.977V287.336Z" fill="white"/>
<path fill-rule="evenodd" clip-rule="evenodd" d="M145.437 289.297V293.819C145.437 294.8 145.238 295.582 145.047 296.176C144.65 296.955 144.264 297.549 143.867 297.945C143.282 298.336 142.689 298.53 142.101 298.724C141.317 298.925 140.539 299.115 139.943 299.115C139.356 299.115 138.575 299.317 137.789 299.317C136.81 299.317 136.214 299.115 135.433 299.115C134.843 299.115 134.25 298.925 133.471 298.724C132.69 298.53 132.103 298.336 131.7 297.945C131.314 297.549 130.922 296.955 130.53 296.176C130.334 295.582 130.144 294.8 130.144 293.819V289.297C130.144 288.121 130.334 287.336 130.53 286.547C130.922 285.767 131.314 285.375 131.7 284.979C132.296 284.586 132.884 284.194 133.667 283.999C134.25 283.797 135.038 283.606 135.626 283.606C136.214 283.606 137 283.406 137.789 283.406C138.575 283.406 139.356 283.606 139.943 283.606C140.539 283.606 141.127 283.797 141.905 283.999C142.689 284.194 143.282 284.586 143.673 284.979C144.264 285.375 144.65 285.767 144.849 286.547C145.238 287.336 145.437 288.121 145.437 289.297ZM140.926 294.206V288.516C140.926 287.728 140.725 287.14 140.338 286.747C139.75 286.547 138.964 286.357 137.789 286.357C136.415 286.357 135.626 286.547 135.24 286.747C134.843 287.14 134.652 287.728 134.652 288.516V294.206C134.652 294.995 134.843 295.582 135.24 295.974C135.626 296.176 136.415 296.367 137.789 296.367C138.964 296.367 139.943 296.176 140.338 295.974C140.725 295.582 140.926 294.995 140.926 294.206Z" fill="white"/>
<path fill-rule="evenodd" clip-rule="evenodd" d="M163.478 298.925H158.97V297.156C158.774 298.529 157.006 299.317 154.264 299.317C152.299 299.317 150.928 298.925 150.147 298.136C149.358 297.348 148.966 296.367 148.966 294.8V283.797H153.475V294.206C153.475 294.995 153.671 295.582 153.872 295.974C154.264 296.175 154.854 296.367 156.032 296.367C157.207 296.367 158.181 296.175 158.383 295.974C158.774 295.582 158.97 295.196 158.97 294.206V283.797H163.478V298.925Z" fill="white"/>
<path fill-rule="evenodd" clip-rule="evenodd" d="M182.899 288.516V293.619C182.899 295.784 182.512 297.348 181.525 298.136C180.551 298.925 178.782 299.317 176.625 299.317C175.251 299.317 174.078 299.115 173.488 298.925C172.704 298.724 172.307 298.136 172.116 297.348V305.403H167.606V283.797H171.915V285.375C172.117 284.586 172.704 284.194 173.488 283.797C174.271 283.606 175.452 283.406 177.014 283.406C178.194 283.406 179.37 283.606 180.148 283.797C180.937 283.999 181.524 284.392 181.919 284.781C182.311 285.375 182.705 285.767 182.705 286.357C182.899 286.943 182.899 287.728 182.899 288.516ZM178.387 294.206V288.516C178.387 287.536 178.194 286.943 177.802 286.747C177.602 286.357 176.625 286.357 175.251 286.357C173.88 286.357 173.091 286.547 172.704 286.747C172.307 287.14 172.116 287.728 172.116 288.516V294.206C172.116 294.995 172.307 295.583 172.704 295.974C173.091 296.176 173.88 296.367 175.251 296.367C176.625 296.367 177.408 296.176 177.802 295.974C178.194 295.583 178.387 294.995 178.387 294.206Z" fill="white"/>
<path fill-rule="evenodd" clip-rule="evenodd" d="M64.02 223.029C64.02 223.029 60.1694 223.252 59.5522 223.264C58.0844 223.264 54.8271 223.133 49.707 222.277C45.918 221.648 38.2759 218.363 35.6513 217.152L34.0574 216.421L32.4715 217.147C29.8096 218.365 22.1083 221.66 18.4081 222.277C13.2962 223.133 10.0334 223.264 8.54912 223.264C7.94276 223.247 4.11368 223.001 4.11368 223.001L0 222.737L0.0641871 226.855C0.0724198 227.542 0.31923 243.767 0.896027 251.617C1.5617 260.728 5.1574 273.848 13.2425 283.341C19.8786 291.139 27.934 296.297 29.4798 297.25C30.1426 297.654 32.1038 298.828 32.1038 298.828L34.055 299.991L36.0057 298.831C36.0057 298.831 38.104 297.58 38.7937 297.149C40.3205 296.207 48.2797 291.107 54.8803 283.333C62.9763 273.832 66.5667 260.717 67.2212 251.615C67.7903 243.767 68.0371 227.57 68.0453 226.883L68.1068 222.795L64.02 223.029ZM63.4273 251.343C62.81 259.84 59.4798 272.064 51.9797 280.874C46.2319 287.64 39.2339 292.406 36.7943 293.912C36.1129 294.334 34.055 295.56 34.055 295.56C34.055 295.56 32.1175 294.405 31.4788 294.014C29.1953 292.604 22.0144 287.783 16.138 280.874C8.64573 272.076 5.316 259.848 4.69048 251.343C4.12192 243.512 3.86688 226.797 3.86688 226.797C3.86688 226.797 8.06356 227.068 8.54912 227.068C10.1564 227.068 13.661 226.929 19.0387 226.032C24.0485 225.193 34.055 220.607 34.055 220.607C34.055 220.607 43.9536 225.172 49.0791 226.032C54.4589 226.929 57.9636 227.068 59.5763 227.068C60.0592 227.068 64.2428 226.826 64.2428 226.826C64.2428 226.826 63.9958 243.512 63.4273 251.343ZM60.5987 230.639C60.5987 230.639 60.4055 243.265 59.842 251.084C59.2729 258.907 56.2088 270.364 49.2427 278.546C44.493 284.133 38.7697 288.289 35.9146 290.192V268.754C42.1586 267.852 46.9645 262.492 46.9645 255.995C46.9645 248.868 41.1874 243.092 34.0627 243.092C26.9303 243.092 21.1506 248.868 21.1506 255.995C21.1506 262.49 25.9536 267.846 32.2008 268.752V290.189C29.3454 288.284 23.6272 284.131 18.8777 278.546C11.9062 270.364 8.84984 258.907 8.27574 251.084C7.70953 243.265 7.52407 230.639 7.52407 230.639C7.52407 230.639 11.6834 230.906 19.6317 229.576C27.58 228.245 34.0145 224.238 34.0145 224.238C34.0145 224.238 34.0226 224.152 34.055 224.181C34.0869 224.152 34.1032 224.238 34.1032 224.238C34.1032 224.238 40.5377 228.245 48.486 229.576C56.4393 230.906 60.5987 230.639 60.5987 230.639Z" fill="white"/>
<path d="M93.8171 326.205H112.147V329.253H104.545V352.053H101.419V329.253H93.8171V326.205ZM110.873 339.554C110.873 337.522 111.523 335.915 112.822 334.731C114.121 333.548 115.851 332.957 118.012 332.957C120.199 332.957 121.942 333.555 123.241 334.751C124.54 335.947 125.189 337.548 125.189 339.554V345.765C125.189 347.823 124.54 349.437 123.241 350.607C121.942 351.777 120.199 352.362 118.012 352.362C115.851 352.362 114.121 351.77 112.822 350.588C111.523 349.404 110.873 347.797 110.873 345.765V339.554ZM113.999 345.765C113.999 346.871 114.359 347.739 115.079 348.369C115.8 348.999 116.777 349.314 118.012 349.314C119.247 349.314 120.231 348.999 120.964 348.369C121.697 347.739 122.064 346.871 122.064 345.765V339.554C122.064 338.473 121.697 337.612 120.964 336.969C120.231 336.326 119.247 336.005 118.012 336.005C116.777 336.005 115.8 336.32 115.079 336.95C114.359 337.58 113.999 338.448 113.999 339.554V345.765ZM142.207 333.265V352.285C142.181 354.317 141.532 355.924 140.258 357.107C138.985 358.29 137.255 358.882 135.068 358.882C133.679 358.882 132.431 358.599 131.325 358.033C130.219 357.467 129.331 356.644 128.662 355.564L131.441 354.137C132.264 355.268 133.473 355.834 135.068 355.834C136.277 355.834 137.248 355.519 137.982 354.889C138.715 354.259 139.081 353.391 139.081 352.285V350.896C138.541 351.333 137.936 351.687 137.267 351.957C136.599 352.227 135.866 352.362 135.068 352.362C132.881 352.362 131.139 351.77 129.839 350.588C128.54 349.404 127.891 347.797 127.891 345.765V339.554C127.891 337.522 128.54 335.915 129.839 334.731C131.139 333.548 132.753 332.957 134.682 332.957C135.428 332.957 136.219 333.105 137.055 333.401C137.891 333.696 138.567 334.178 139.081 334.847V333.265H142.207ZM131.016 345.765C131.016 346.871 131.383 347.739 132.116 348.369C132.849 348.999 133.833 349.314 135.068 349.314C136.251 349.314 137.203 349.019 137.924 348.427C138.644 347.836 139.03 347.013 139.081 345.958V339.361C139.03 338.306 138.644 337.484 137.924 336.892C137.203 336.3 136.251 336.005 135.068 336.005C133.833 336.005 132.849 336.32 132.116 336.95C131.383 337.58 131.016 338.448 131.016 339.554V345.765ZM147.532 345.765C147.532 346.871 147.892 347.739 148.613 348.369C149.333 348.999 150.311 349.314 151.546 349.314C152.574 349.314 153.443 349.064 154.15 348.562C154.858 348.06 155.314 347.347 155.52 346.421L158.645 346.807C158.311 348.556 157.526 349.919 156.292 350.896C155.057 351.873 153.475 352.362 151.546 352.362C149.385 352.362 147.655 351.77 146.355 350.588C145.056 349.404 144.406 347.797 144.406 345.765V339.554C144.406 337.522 145.056 335.915 146.355 334.731C147.655 333.548 149.385 332.957 151.546 332.957C153.732 332.957 155.469 333.548 156.755 334.731C158.041 335.915 158.697 337.522 158.723 339.554V343.605H147.532V345.765ZM147.532 340.827H155.597V339.554C155.571 338.448 155.198 337.58 154.478 336.95C153.758 336.32 152.78 336.005 151.546 336.005C150.311 336.005 149.333 336.32 148.613 336.95C147.892 337.58 147.532 338.448 147.532 339.554V340.827ZM162.852 328.057H165.977V333.265H170.955V336.313H165.977V346.845C165.977 347.514 166.138 348.093 166.46 348.581C166.781 349.07 167.354 349.314 168.177 349.314H171.226V352.362H168.177C166.505 352.362 165.199 351.873 164.26 350.896C163.321 349.919 162.852 348.568 162.852 346.845V336.313H160.884V333.265H162.852V328.057ZM177.438 326.205V334.847C177.953 334.178 178.628 333.696 179.464 333.401C180.3 333.105 181.091 332.957 181.837 332.957C184.024 332.957 185.702 333.548 186.873 334.731C188.044 335.915 188.629 337.522 188.629 339.554V352.053H185.503V339.554C185.503 338.448 185.137 337.58 184.403 336.95C183.67 336.32 182.686 336.005 181.452 336.005C180.268 336.005 179.31 336.3 178.577 336.892C177.843 337.484 177.464 338.306 177.438 339.361V352.053H174.312V326.205H177.438ZM194.996 345.765C194.996 346.871 195.356 347.739 196.076 348.369C196.796 348.999 197.774 349.314 199.009 349.314C200.038 349.314 200.906 349.064 201.614 348.562C202.321 348.06 202.778 347.347 202.984 346.421L206.109 346.807C205.775 348.556 204.99 349.919 203.756 350.896C202.521 351.873 200.939 352.362 199.009 352.362C196.848 352.362 195.118 351.77 193.819 350.588C192.52 349.404 191.87 347.797 191.87 345.765V339.554C191.87 337.522 192.52 335.915 193.819 334.731C195.118 333.548 196.848 332.957 199.009 332.957C201.196 332.957 202.932 333.548 204.219 334.731C205.505 335.915 206.161 337.522 206.186 339.554V343.605H194.996V345.765ZM194.996 340.827H203.061V339.554C203.035 338.448 202.662 337.58 201.942 336.95C201.222 336.32 200.244 336.005 199.009 336.005C197.774 336.005 196.796 336.32 196.076 336.95C195.356 337.58 194.996 338.448 194.996 339.554V340.827ZM211.512 333.265V334.77C212.001 334.101 212.612 333.632 213.345 333.362C214.078 333.092 214.946 332.957 215.95 332.957C216.49 332.957 217.126 333.047 217.86 333.227C218.593 333.407 219.281 333.69 219.924 334.076L218.111 336.622C217.236 336.21 216.387 336.005 215.564 336.005C214.355 336.005 213.39 336.3 212.669 336.892C211.949 337.484 211.563 338.306 211.512 339.361V352.053H208.386V333.265H211.512ZM232.851 338.512C233.186 336.763 233.97 335.4 235.205 334.423C236.44 333.445 238.022 332.957 239.952 332.957C242.113 332.957 243.843 333.548 245.142 334.731C246.441 335.915 247.09 337.522 247.09 339.554V352.053H243.965V350.896C243.527 351.385 242.936 351.751 242.19 351.995C241.444 352.24 240.698 352.362 239.952 352.362C237.765 352.362 236.022 351.802 234.723 350.684C233.424 349.565 232.774 348.041 232.774 346.112C232.774 344.183 233.424 342.666 234.723 341.56C236.022 340.454 237.765 339.901 239.952 339.901C240.724 339.901 241.456 340.017 242.151 340.248C242.846 340.48 243.45 340.814 243.965 341.251V339.554C243.965 338.448 243.605 337.58 242.884 336.95C242.164 336.32 241.186 336.005 239.952 336.005C238.922 336.005 238.054 336.255 237.347 336.757C236.639 337.259 236.183 337.972 235.977 338.898L232.851 338.512ZM243.965 346.112C243.914 345.083 243.527 344.299 242.807 343.759C242.087 343.219 241.135 342.949 239.952 342.949C238.717 342.949 237.733 343.232 237 343.797C236.266 344.363 235.9 345.135 235.9 346.112C235.9 347.09 236.266 347.868 237 348.446C237.733 349.025 238.717 349.314 239.952 349.314C241.186 349.314 242.164 349.025 242.884 348.446C243.605 347.868 243.965 347.09 243.965 346.112ZM252.686 346.421C252.917 347.347 253.432 348.06 254.229 348.562C255.027 349.064 255.94 349.314 256.969 349.314C258.255 349.314 259.272 349.083 260.018 348.62C260.763 348.157 261.136 347.501 261.136 346.652C261.136 345.804 260.847 345.199 260.268 344.839C259.689 344.479 258.538 344.183 256.815 343.952C254.808 343.72 253.168 343.187 251.895 342.351C250.621 341.515 249.984 340.21 249.984 338.435C250.036 336.686 250.686 335.336 251.933 334.384C253.181 333.433 254.86 332.957 256.969 332.957C258.873 332.957 260.442 333.445 261.677 334.423C262.912 335.4 263.696 336.763 264.031 338.512L260.905 338.898C260.699 337.972 260.243 337.259 259.535 336.757C258.828 336.255 257.972 336.005 256.969 336.005C255.76 336.005 254.815 336.21 254.133 336.622C253.451 337.033 253.11 337.638 253.11 338.435C253.11 339.233 253.509 339.817 254.306 340.19C255.104 340.563 256.03 340.801 257.085 340.904C259.735 341.161 261.593 341.74 262.661 342.64C263.728 343.54 264.262 344.877 264.262 346.652C264.262 348.427 263.6 349.822 262.275 350.838C260.95 351.854 259.181 352.362 256.969 352.362C255.065 352.362 253.444 351.873 252.107 350.896C250.769 349.919 249.92 348.556 249.56 346.807L252.686 346.421ZM277.73 339.554C277.73 337.522 278.379 335.915 279.679 334.731C280.978 333.548 282.708 332.957 284.869 332.957C287.055 332.957 288.799 333.555 290.098 334.751C291.397 335.947 292.046 337.548 292.046 339.554V345.765C292.046 347.823 291.397 349.437 290.098 350.607C288.799 351.777 287.055 352.362 284.869 352.362C282.708 352.362 280.978 351.77 279.679 350.588C278.379 349.404 277.73 347.797 277.73 345.765V339.554ZM280.855 345.765C280.855 346.871 281.216 347.739 281.936 348.369C282.657 348.999 283.634 349.314 284.869 349.314C286.103 349.314 287.088 348.999 287.821 348.369C288.554 347.739 288.921 346.871 288.921 345.765V339.554C288.921 338.473 288.554 337.612 287.821 336.969C287.088 336.326 286.103 336.005 284.869 336.005C283.634 336.005 282.657 336.32 281.936 336.95C281.216 337.58 280.855 338.448 280.855 339.554V345.765ZM297.333 333.265V334.808C297.873 334.191 298.555 333.728 299.378 333.42C300.201 333.111 300.986 332.957 301.732 332.957C303.842 332.957 305.501 333.548 306.71 334.731C307.919 335.915 308.523 337.522 308.523 339.554V352.053H305.398V339.554C305.398 338.448 305.031 337.58 304.298 336.95C303.565 336.32 302.581 336.005 301.346 336.005C300.163 336.005 299.205 336.3 298.471 336.892C297.738 337.484 297.359 338.306 297.333 339.361V352.053H294.207V333.265H297.333ZM313.695 345.765C313.695 346.871 314.055 347.739 314.775 348.369C315.495 348.999 316.473 349.314 317.708 349.314C318.737 349.314 319.605 349.064 320.313 348.562C321.02 348.06 321.477 347.347 321.682 346.421L324.808 346.807C324.474 348.556 323.689 349.919 322.454 350.896C321.219 351.873 319.637 352.362 317.708 352.362C315.547 352.362 313.817 351.77 312.517 350.588C311.219 349.404 310.569 347.797 310.569 345.765V339.554C310.569 337.522 311.219 335.915 312.517 334.731C313.817 333.548 315.547 332.957 317.708 332.957C319.895 332.957 321.631 333.548 322.917 334.731C324.204 335.915 324.86 337.522 324.885 339.554V343.605H313.695V345.765ZM313.695 340.827H321.76V339.554C321.734 338.448 321.361 337.58 320.641 336.95C319.92 336.32 318.943 336.005 317.708 336.005C316.473 336.005 315.495 336.32 314.775 336.95C314.055 337.58 313.695 338.448 313.695 339.554V340.827Z" fill="white"/>
<path d="M446.393 194.803H429.63L403.878 211.14V200.208L420.945 190.065L403.878 179.74V169.112L429.448 185.449H446.393V194.803Z" fill="white"/>
<path d="M446.393 163.292H403.878V131.225H412.2V154H420.823V133.957H429.144V154H438.072V130.92H446.393V163.292Z" fill="white"/>
<path d="M446.393 126.249L403.575 108.028V99.404L446.393 81.1836V90.9619L436.858 94.8489V112.826L446.393 116.713V126.249ZM428.598 109.486V98.1893L414.81 103.838L428.598 109.486Z" fill="white"/>
<path d="M446.393 74.6219H403.878V55.1869C403.878 49.8017 405.316 45.6718 408.19 42.797C410.62 40.3676 413.9 39.1529 418.03 39.1529C424.549 39.1529 428.941 42.1897 431.209 48.2631L446.393 37.8775V48.8097L432.788 58.0413V65.2688H446.393V74.6219ZM424.528 65.2688V55.7941C424.528 53.5268 423.982 51.7655 422.888 50.5103C421.754 49.2551 420.256 48.6275 418.394 48.6275C416.41 48.6275 414.912 49.2754 413.9 50.571C412.847 51.8667 412.321 53.6685 412.321 55.9764V65.2688H424.528Z" fill="white"/>
<path d="M447 15.6088C447 22.5731 444.733 28.5858 440.197 33.6469L433.577 28.1201C437.02 23.9497 438.74 19.7185 438.74 15.4265C438.74 13.5236 438.375 12.0254 437.647 10.9322C436.918 9.839 435.906 9.29238 434.61 9.29238C433.396 9.29238 432.424 9.85924 431.695 10.993C430.926 12.1267 430.095 14.4143 429.205 17.8559C428.598 20.2854 428.01 22.2491 427.443 23.7473C426.836 25.2454 426.047 26.6827 425.075 28.0593C424.104 29.3955 422.888 30.3875 421.43 31.0354C419.932 31.6427 418.151 31.9464 416.086 31.9464C412.24 31.9464 409.142 30.5697 406.794 27.8164C404.445 25.0227 403.271 21.4394 403.271 17.0664C403.271 11.0335 405.073 5.76978 408.676 1.27543L415.722 6.13419C412.928 10.1427 411.531 13.8272 411.531 17.1879C411.531 18.9289 411.895 20.2854 412.624 21.2571C413.312 22.1883 414.224 22.654 415.358 22.654C416.734 22.654 417.767 22.0669 418.455 20.8927C419.144 19.7185 419.973 17.2486 420.945 13.4831C422.159 8.86725 423.718 5.46611 425.621 3.27967C427.524 1.09322 430.257 1.55748e-07 433.82 0C437.951 -1.80525e-07 441.19 1.43738 443.538 4.31215C445.846 7.14644 447 10.912 447 15.6088Z" fill="white"/>
<path d="M172.52 207.294C139.732 207.294 113.558 195.693 94 172.492L124.488 143.443C138.869 159.549 155.072 167.603 173.095 167.603C181.532 167.603 188.339 165.397 193.517 160.988C198.885 156.386 201.57 150.25 201.57 142.579C201.57 134.335 198.118 128.006 191.216 123.597C184.313 119.186 174.63 116.982 162.166 116.982H143.758L136.856 88.7946L184.888 40.4744H105.793V2.50851H241.837V35.8725L190.928 84.4804C226.977 90.6162 245.001 109.599 245.001 141.429C245.001 160.795 238.386 176.615 225.155 188.886C212.116 201.158 194.571 207.294 172.52 207.294Z" fill="white"/>
<path d="M311.796 206.653V54.9024L277.623 62.7216L266.907 19.2815L326.276 2.48462H367.109V206.653H311.796Z" fill="white"/>
</svg>
