<svg width="1065" height="1214" viewBox="0 0 1065 1214" fill="none" xmlns="http://www.w3.org/2000/svg">
<path d="M998.645 238.944C998.683 252.667 995.998 266.261 990.743 278.944C985.488 291.627 977.767 303.148 968.026 312.841L760.351 519.931L337.901 939.864L88.5135 972.609L122.238 724.809L544.245 303.549L751.92 96.4588C771.621 76.9491 798.26 66 826.026 66C853.792 66 880.431 76.9491 900.132 96.4588L968.913 165.046C978.514 174.798 986.084 186.348 991.187 199.031C996.29 211.714 998.824 225.279 998.645 238.944Z" stroke="#020202" stroke-width="65" stroke-miterlimit="10"/>
<path d="M652.076 195.579L868.626 411.519" stroke="#020202" stroke-width="65" stroke-miterlimit="10"/>
<path d="M338.345 939.864L88.9572 972.609L122.238 724.809C174.267 738.083 221.767 765.041 259.78 802.87C297.794 840.699 324.926 888.01 338.345 939.864Z" stroke="#020202" stroke-width="65" stroke-miterlimit="10"/>
<path d="M760.351 303.549L259.801 802.689" stroke="#020202" stroke-width="65" stroke-miterlimit="10"/>
<path d="M644.532 419.041L583.295 480.106" stroke="#020202" stroke-width="65" stroke-miterlimit="10"/>
<path d="M327.122 87.5608L67 346.951L283.821 563.161L543.943 303.771L327.122 87.5608Z" stroke="#020202" stroke-width="65" stroke-miterlimit="10"/>
<path d="M760.213 519.57L500.091 778.96L716.912 995.17L977.034 735.781L760.213 519.57Z" stroke="#020202" stroke-width="65" stroke-miterlimit="10"/>
<path d="M175.045 454.884L262.02 368.596" stroke="#020202" stroke-width="65" stroke-miterlimit="10"/>
<path d="M608.588 887.206L695.12 800.476" stroke="#020202" stroke-width="65" stroke-miterlimit="10"/>
<path d="M134.864 1165V1160.14H137.68C138.96 1160.14 140.24 1160.09 141.52 1160.01C142.8 1159.92 143.867 1159.79 144.72 1159.62C145.573 1159.37 146 1159.11 146 1158.86V1080.14C146 1079.88 145.573 1079.67 144.72 1079.5C143.867 1079.33 142.8 1079.2 141.52 1079.11C140.24 1079.03 138.96 1078.98 137.68 1078.98H136.656V1074.12H175.824V1078.98H174.8C172.581 1078.98 170.619 1079.28 168.912 1079.88C167.291 1080.48 166.48 1081.67 166.48 1083.46V1155.66C166.48 1157.45 167.291 1158.64 168.912 1159.24C170.533 1159.84 172.496 1160.14 174.8 1160.14H175.824V1165H134.864ZM124.88 1128.78C118.053 1128.78 112.336 1127.97 107.728 1126.34C103.205 1124.72 99.792 1122.08 97.488 1118.41C95.184 1114.65 94.032 1109.75 94.032 1103.69V1083.46C94.032 1081.67 93.2213 1080.48 91.6 1079.88C89.9787 1079.28 88.016 1078.98 85.712 1078.98H84.688V1074.12H123.856V1078.98H122.832C121.552 1078.98 120.272 1079.03 118.992 1079.11C117.712 1079.2 116.645 1079.33 115.792 1079.5C114.939 1079.67 114.512 1079.88 114.512 1080.14V1104.46C114.512 1108.72 115.024 1112.26 116.048 1115.08C117.157 1117.81 118.864 1119.86 121.168 1121.22C123.472 1122.5 126.501 1123.14 130.256 1123.14C133.755 1123.14 137.168 1122.72 140.496 1121.86C143.909 1120.93 147.237 1119.56 150.48 1117.77V1122.89C147.067 1124.68 143.099 1126.13 138.576 1127.24C134.139 1128.26 129.573 1128.78 124.88 1128.78ZM191.139 1156.3V1107.27C191.139 1105.57 190.371 1104.5 188.835 1104.07C187.384 1103.56 185.592 1103.3 183.459 1103.3H183.331V1098.57H217.635V1103.3H217.379C216.355 1103.3 215.288 1103.35 214.179 1103.43C213.155 1103.52 212.259 1103.65 211.491 1103.82C210.808 1103.99 210.467 1104.2 210.467 1104.46V1159.11C210.467 1159.37 210.808 1159.58 211.491 1159.75C212.259 1159.92 213.155 1160.05 214.179 1160.14C215.288 1160.22 216.355 1160.26 217.379 1160.26H217.635V1165H183.331V1160.26H183.459C185.592 1160.26 187.384 1160.05 188.835 1159.62C190.371 1159.11 191.139 1158 191.139 1156.3ZM234.915 1159.11V1104.46C234.915 1104.11 234.531 1103.86 233.763 1103.69C232.995 1103.52 232.056 1103.43 230.947 1103.43C229.838 1103.35 228.814 1103.3 227.875 1103.3V1098.57H262.051V1103.3H261.923C259.79 1103.3 257.955 1103.56 256.419 1104.07C254.968 1104.5 254.243 1105.57 254.243 1107.27V1156.3C254.243 1158 254.968 1159.11 256.419 1159.62C257.955 1160.05 259.79 1160.26 261.923 1160.26H262.051V1165H227.875V1160.26C228.814 1160.26 229.838 1160.22 230.947 1160.14C232.056 1160.05 232.995 1159.92 233.763 1159.75C234.531 1159.58 234.915 1159.37 234.915 1159.11ZM210.083 1151.69L205.731 1148.36L235.299 1111.88L239.651 1115.21L210.083 1151.69ZM308.636 1160.26C311.964 1160.26 314.865 1159.62 317.34 1158.34C319.815 1157.06 321.948 1155.36 323.74 1153.22C325.617 1151.09 327.196 1148.79 328.476 1146.31L333.084 1149.64C331.377 1152.97 329.244 1155.91 326.684 1158.47C324.124 1160.95 321.095 1162.87 317.596 1164.23C314.097 1165.6 310.044 1166.28 305.436 1166.28C298.609 1166.28 292.508 1164.87 287.132 1162.06C281.756 1159.24 277.489 1155.23 274.332 1150.02C271.26 1144.82 269.724 1138.72 269.724 1131.72C269.724 1124.72 271.217 1118.66 274.204 1113.54C277.276 1108.42 281.585 1104.46 287.132 1101.64C292.679 1098.74 299.164 1097.29 306.588 1097.29C310.599 1097.29 314.268 1097.67 317.596 1098.44C320.924 1099.21 323.74 1100.15 326.044 1101.26C328.433 1102.28 330.268 1103.3 331.548 1104.33V1119.3H316.572V1103.05C317.34 1103.22 317.98 1103.52 318.492 1103.94C319.089 1104.29 319.601 1104.75 320.028 1105.35C320.455 1105.95 320.753 1106.59 320.924 1107.27C321.18 1107.95 321.18 1108.59 320.924 1109.19C319.815 1107.49 318.108 1105.99 315.804 1104.71C313.585 1103.43 310.855 1102.79 307.612 1102.79C303.687 1102.79 300.401 1103.9 297.756 1106.12C295.111 1108.34 293.105 1111.58 291.74 1115.85C290.375 1120.11 289.692 1125.41 289.692 1131.72C289.692 1136.41 290.076 1140.55 290.844 1144.14C291.697 1147.63 292.935 1150.62 294.556 1153.1C296.177 1155.49 298.14 1157.28 300.444 1158.47C302.833 1159.67 305.564 1160.26 308.636 1160.26ZM372.346 1104.2V1098.57H405.498V1122.38H400.122L397.434 1110.09C397.093 1108.38 396.453 1107.1 395.514 1106.25C394.661 1105.39 393.338 1104.84 391.546 1104.58C389.839 1104.33 387.45 1104.2 384.378 1104.2H372.346ZM372.346 1104.2H360.314C357.327 1104.2 354.938 1104.33 353.146 1104.58C351.354 1104.84 350.031 1105.39 349.178 1106.25C348.325 1107.1 347.685 1108.38 347.258 1110.09L344.57 1122.38H339.194V1098.57H372.346V1104.2ZM382.074 1156.3C382.074 1158 382.799 1159.11 384.25 1159.62C385.701 1160.05 387.535 1160.26 389.754 1160.26H391.418V1165H353.274V1160.26H355.066C357.199 1160.26 358.991 1160.05 360.442 1159.62C361.893 1159.11 362.618 1158 362.618 1156.3V1098.57H382.074V1156.3ZM487.22 1159.11V1104.46C487.22 1104.11 486.836 1103.86 486.068 1103.69C485.3 1103.52 484.361 1103.43 483.252 1103.43C482.228 1103.35 481.247 1103.3 480.308 1103.3H480.18V1098.57H514.484V1103.3H514.228C512.095 1103.3 510.303 1103.56 508.852 1104.07C507.401 1104.5 506.676 1105.57 506.676 1107.27V1156.3C506.676 1158 507.401 1159.11 508.852 1159.62C510.303 1160.05 512.095 1160.26 514.228 1160.26H514.484V1165H480.18V1160.26H480.308C481.247 1160.26 482.228 1160.22 483.252 1160.14C484.361 1160.05 485.3 1159.92 486.068 1159.75C486.836 1159.58 487.22 1159.37 487.22 1159.11ZM439.092 1159.37H446.132C450.655 1159.37 453.983 1158 456.116 1155.27C458.249 1152.46 459.316 1148.7 459.316 1144.01C459.316 1139.4 458.249 1135.86 456.116 1133.38C454.068 1130.82 450.953 1129.54 446.772 1129.54H435.508V1123.91H449.972C459.7 1123.91 466.868 1125.62 471.476 1129.03C476.169 1132.45 478.516 1137.39 478.516 1143.88C478.516 1150.54 476.041 1155.74 471.092 1159.5C466.143 1163.17 458.889 1165 449.332 1165H411.956V1160.26H412.084C414.217 1160.26 416.009 1160.05 417.46 1159.62C418.996 1159.11 419.764 1158 419.764 1156.3V1107.27C419.764 1105.57 418.996 1104.5 417.46 1104.07C416.009 1103.56 414.217 1103.3 412.084 1103.3H411.956V1098.57H447.412V1103.3H446.004C444.98 1103.3 443.913 1103.35 442.804 1103.43C441.78 1103.52 440.884 1103.65 440.116 1103.82C439.433 1103.9 439.092 1104.11 439.092 1104.46V1159.37ZM529.014 1156.3V1107.27C529.014 1105.57 528.246 1104.5 526.71 1104.07C525.259 1103.56 523.467 1103.3 521.334 1103.3H521.206V1098.57H555.51V1103.3H555.254C554.23 1103.3 553.163 1103.35 552.054 1103.43C551.03 1103.52 550.134 1103.65 549.366 1103.82C548.683 1103.99 548.342 1104.2 548.342 1104.46V1159.11C548.342 1159.37 548.683 1159.58 549.366 1159.75C550.134 1159.92 551.03 1160.05 552.054 1160.14C553.163 1160.22 554.23 1160.26 555.254 1160.26H555.51V1165H521.206V1160.26H521.334C523.467 1160.26 525.259 1160.05 526.71 1159.62C528.246 1159.11 529.014 1158 529.014 1156.3ZM572.79 1159.11V1104.46C572.79 1104.11 572.406 1103.86 571.638 1103.69C570.87 1103.52 569.931 1103.43 568.822 1103.43C567.713 1103.35 566.689 1103.3 565.75 1103.3V1098.57H599.926V1103.3H599.798C597.665 1103.3 595.83 1103.56 594.294 1104.07C592.843 1104.5 592.118 1105.57 592.118 1107.27V1156.3C592.118 1158 592.843 1159.11 594.294 1159.62C595.83 1160.05 597.665 1160.26 599.798 1160.26H599.926V1165H565.75V1160.26C566.689 1160.26 567.713 1160.22 568.822 1160.14C569.931 1160.05 570.87 1159.92 571.638 1159.75C572.406 1159.58 572.79 1159.37 572.79 1159.11ZM547.958 1151.69L543.606 1148.36L573.174 1111.88L577.526 1115.21L547.958 1151.69ZM560.63 1090.63C556.875 1090.63 553.505 1089.86 550.518 1088.33C547.531 1086.71 545.142 1084.32 543.35 1081.16C541.558 1077.92 540.662 1073.86 540.662 1069H552.822C552.907 1072.67 553.206 1075.7 553.718 1078.09C554.315 1080.39 555.169 1082.1 556.278 1083.21C557.473 1084.32 558.966 1084.87 560.758 1084.87C562.635 1084.87 564.129 1084.32 565.238 1083.21C566.347 1082.1 567.158 1080.39 567.67 1078.09C568.182 1075.7 568.481 1072.67 568.566 1069H580.598C580.598 1073.86 579.702 1077.92 577.91 1081.16C576.118 1084.32 573.729 1086.71 570.742 1088.33C567.755 1089.86 564.385 1090.63 560.63 1090.63ZM660.416 1074.12H703.168V1080.01H660.416V1074.12ZM685.248 1165V1160.14H686.4C687.595 1160.14 688.832 1160.09 690.112 1160.01C691.392 1159.92 692.459 1159.79 693.312 1159.62C694.165 1159.37 694.592 1159.11 694.592 1158.86V1074.12H724.544V1078.98H723.52C721.216 1078.98 719.211 1079.28 717.504 1079.88C715.883 1080.48 715.072 1081.67 715.072 1083.46V1155.66C715.072 1157.45 715.883 1158.64 717.504 1159.24C719.211 1159.84 721.216 1160.14 723.52 1160.14H724.544V1165H685.248ZM655.04 1125.32L657.088 1084.74C657.173 1082.44 656.363 1080.9 654.656 1080.14C653.035 1079.37 650.944 1078.98 648.384 1078.98H646.464V1074.12H664.512L661.952 1125.83C661.525 1134.96 660.587 1142.6 659.136 1148.74C657.685 1154.8 655.509 1159.33 652.608 1162.31C649.792 1165.21 646.037 1166.66 641.344 1166.66C639.296 1166.66 637.632 1166.45 636.352 1166.02C635.072 1165.6 634.048 1165.17 633.28 1164.74V1146.82C633.877 1147.17 634.816 1147.59 636.096 1148.1C637.461 1148.53 639.125 1148.74 641.088 1148.74C644.16 1148.74 646.677 1147.93 648.64 1146.31C650.603 1144.61 652.096 1142 653.12 1138.5C654.229 1135.01 654.869 1130.61 655.04 1125.32ZM739.764 1156.3V1107.27C739.764 1105.57 738.996 1104.5 737.46 1104.07C736.009 1103.56 734.217 1103.3 732.084 1103.3H731.956V1098.57H766.26V1103.3H766.004C764.98 1103.3 763.913 1103.35 762.804 1103.43C761.78 1103.52 760.884 1103.65 760.116 1103.82C759.433 1103.99 759.092 1104.2 759.092 1104.46V1159.11C759.092 1159.37 759.433 1159.58 760.116 1159.75C760.884 1159.92 761.78 1160.05 762.804 1160.14C763.913 1160.22 764.98 1160.26 766.004 1160.26H766.26V1165H731.956V1160.26H732.084C734.217 1160.26 736.009 1160.05 737.46 1159.62C738.996 1159.11 739.764 1158 739.764 1156.3ZM783.54 1159.11V1104.46C783.54 1104.11 783.156 1103.86 782.388 1103.69C781.62 1103.52 780.681 1103.43 779.572 1103.43C778.463 1103.35 777.439 1103.3 776.5 1103.3V1098.57H810.676V1103.3H810.548C808.415 1103.3 806.58 1103.56 805.044 1104.07C803.593 1104.5 802.868 1105.57 802.868 1107.27V1156.3C802.868 1158 803.593 1159.11 805.044 1159.62C806.58 1160.05 808.415 1160.26 810.548 1160.26H810.676V1165H776.5V1160.26C777.439 1160.26 778.463 1160.22 779.572 1160.14C780.681 1160.05 781.62 1159.92 782.388 1159.75C783.156 1159.58 783.54 1159.37 783.54 1159.11ZM758.708 1151.69L754.356 1148.36L783.924 1111.88L788.276 1115.21L758.708 1151.69ZM857.261 1160.26C860.589 1160.26 863.49 1159.62 865.965 1158.34C868.44 1157.06 870.573 1155.36 872.365 1153.22C874.242 1151.09 875.821 1148.79 877.101 1146.31L881.709 1149.64C880.002 1152.97 877.869 1155.91 875.309 1158.47C872.749 1160.95 869.72 1162.87 866.221 1164.23C862.722 1165.6 858.669 1166.28 854.061 1166.28C847.234 1166.28 841.133 1164.87 835.757 1162.06C830.381 1159.24 826.114 1155.23 822.957 1150.02C819.885 1144.82 818.349 1138.72 818.349 1131.72C818.349 1124.72 819.842 1118.66 822.829 1113.54C825.901 1108.42 830.21 1104.46 835.757 1101.64C841.304 1098.74 847.789 1097.29 855.213 1097.29C859.224 1097.29 862.893 1097.67 866.221 1098.44C869.549 1099.21 872.365 1100.15 874.669 1101.26C877.058 1102.28 878.893 1103.3 880.173 1104.33V1119.3H865.197V1103.05C865.965 1103.22 866.605 1103.52 867.117 1103.94C867.714 1104.29 868.226 1104.75 868.653 1105.35C869.08 1105.95 869.378 1106.59 869.549 1107.27C869.805 1107.95 869.805 1108.59 869.549 1109.19C868.44 1107.49 866.733 1105.99 864.429 1104.71C862.21 1103.43 859.48 1102.79 856.237 1102.79C852.312 1102.79 849.026 1103.9 846.381 1106.12C843.736 1108.34 841.73 1111.58 840.365 1115.85C839 1120.11 838.317 1125.41 838.317 1131.72C838.317 1136.41 838.701 1140.55 839.469 1144.14C840.322 1147.63 841.56 1150.62 843.181 1153.1C844.802 1155.49 846.765 1157.28 849.069 1158.47C851.458 1159.67 854.189 1160.26 857.261 1160.26ZM920.971 1104.2V1098.57H954.123V1122.38H948.747L946.059 1110.09C945.718 1108.38 945.078 1107.1 944.139 1106.25C943.286 1105.39 941.963 1104.84 940.171 1104.58C938.464 1104.33 936.075 1104.2 933.003 1104.2H920.971ZM920.971 1104.2H908.939C905.952 1104.2 903.563 1104.33 901.771 1104.58C899.979 1104.84 898.656 1105.39 897.803 1106.25C896.95 1107.1 896.31 1108.38 895.883 1110.09L893.195 1122.38H887.819V1098.57H920.971V1104.2ZM930.699 1156.3C930.699 1158 931.424 1159.11 932.875 1159.62C934.326 1160.05 936.16 1160.26 938.379 1160.26H940.043V1165H901.899V1160.26H903.691C905.824 1160.26 907.616 1160.05 909.067 1159.62C910.518 1159.11 911.243 1158 911.243 1156.3V1098.57H930.699V1156.3Z" fill="black"/>
</svg>
